<?xml version="1.0" encoding="utf-8"?>
<!-- Generator: Adobe Illustrator 25.4.1, SVG Export Plug-In . SVG Version: 6.00 Build 0)  -->
<svg version="1.1"
	 id="Layer_1" xmlns:cc="http://creativecommons.org/ns#" xmlns:dc="http://purl.org/dc/elements/1.1/" xmlns:inkscape="http://www.inkscape.org/namespaces/inkscape" xmlns:rdf="http://www.w3.org/1999/02/22-rdf-syntax-ns#" xmlns:sodipodi="http://sodipodi.sourceforge.net/DTD/sodipodi-0.dtd" xmlns:svg="http://www.w3.org/2000/svg"
	 xmlns="http://www.w3.org/2000/svg" xmlns:xlink="http://www.w3.org/1999/xlink" x="0px" y="0px" viewBox="0 0 9 9"
	 style="enable-background:new 0 0 9 9;" xml:space="preserve">
<g>
	<path d="M3.3,0.4C3.3,0.4,3.3,0.4,3.3,0.4c-0.2,0-0.3,0.1-0.3,0.3v1.6v1.2L0,8.4c-0.1,0.1,0,0.3,0.1,0.4c0,0,0.1,0,0.1,0h4h0h4.5
		C8.8,8.8,9,8.7,9,8.5c0,0,0-0.1,0-0.1L6.7,4.8C6.6,4.7,6.5,4.6,6.4,4.6c-0.1,0-0.2,0.1-0.2,0.1L5.3,6.3L3.6,3.4V2.5h2.2
		C5.9,2.5,6,2.4,6,2.3c0,0,0-0.1,0-0.1L5.6,1.4L6,0.8C6,0.6,6,0.5,5.9,0.4c0,0-0.1,0-0.1,0L3.3,0.4C3.4,0.4,3.3,0.4,3.3,0.4L3.3,0.4
		z M3.6,0.9h1.7L5,1.3C5,1.4,5,1.5,5,1.6L5.3,2H3.6L3.6,0.9z M3.3,4l1,1.7L4,6L3.3,5.5L2.7,6L2.3,5.7L3.3,4z M6.5,5.4l1.8,2.9H4.7
		l0.8-1.4c0,0,0,0,0,0L6.5,5.4z M3.3,6.1L4,6.7l0.6-0.5L5,6.8L4.1,8.3H0.7L2,6.1l0.6,0.5L3.3,6.1z"/>
</g>
</svg>
