<?xml version="1.0" encoding="utf-8"?>
<!-- Generator: Adobe Illustrator 25.4.1, SVG Export Plug-In . SVG Version: 6.00 Build 0)  -->
<svg version="1.1" id="Layer_1" xmlns="http://www.w3.org/2000/svg" xmlns:xlink="http://www.w3.org/1999/xlink" x="0px" y="0px"
	 viewBox="0 0 100 100" style="enable-background:new 0 0 100 100;" xml:space="preserve">
<g>
	<g>
		<path d="M50.9,55.4h-6.2c-1.4,0-2.4-1.1-2.4-2.4c0-1.4,1.1-2.4,2.4-2.4h6.2c1.4,0,2.4,1.1,2.4,2.4C53.4,54.3,52.3,55.4,50.9,55.4z
			"/>
	</g>
	<g>
		<path d="M50,89.4c-4.7,0-9.3-0.8-13.7-2.4c-1.3-0.5-1.9-1.9-1.5-3.1c0.5-1.3,1.9-1.9,3.1-1.5c3.8,1.4,7.9,2.1,12,2.1
			c19.2,0,34.8-15.6,34.8-34.8S69.1,14.9,49.9,14.9S15.2,30.5,15.2,49.8c0,8.4,3,16.5,8.5,22.8c0.9,1,0.8,2.6-0.2,3.5
			s-2.6,0.8-3.5-0.2c-6.3-7.2-9.7-16.5-9.7-26C10.3,28,28.1,10.2,50,10.2s39.7,17.7,39.7,39.6S71.9,89.4,50,89.4z"/>
	</g>
	<g>
		<path d="M35.8,43.7c-4.4,0-7.9-3.6-7.9-7.9s3.6-7.9,7.9-7.9s7.9,3.6,7.9,7.9C43.7,40,40.2,43.7,35.8,43.7z M35.8,32.7
			c-1.7,0-3.1,1.4-3.1,3.1s1.4,3.1,3.1,3.1s3.1-1.4,3.1-3.1S37.5,32.7,35.8,32.7z"/>
	</g>
	<g>
		<path d="M63.8,43.7c-4.4,0-7.9-3.6-7.9-7.9s3.6-7.9,7.9-7.9s7.9,3.6,7.9,7.9C71.7,40,68.1,43.7,63.8,43.7z M63.8,32.7
			c-1.7,0-3.1,1.4-3.1,3.1s1.4,3.1,3.1,3.1c1.7,0,3.1-1.4,3.1-3.1S65.5,32.7,63.8,32.7z"/>
	</g>
	<g>
		<path d="M67.6,66.8c-4.4,0-7.9-3.6-7.9-7.9c0-3,2.5-12.8,7.9-12.8c5.5,0,7.9,9.8,7.9,12.8C75.5,63.3,72,66.8,67.6,66.8z
			 M67.4,50.9c-0.9,0.5-2.9,5.4-2.9,8c0,1.7,1.4,3.1,3.1,3.1s3.1-1.4,3.1-3.1C70.6,56.3,68.7,51.4,67.4,50.9z"/>
	</g>
</g>
</svg>
