<?xml version="1.0" encoding="utf-8"?>
<!-- Generator: Adobe Illustrator 25.4.1, SVG Export Plug-In . SVG Version: 6.00 Build 0)  -->
<svg version="1.1" id="Layer_1" xmlns="http://www.w3.org/2000/svg" xmlns:xlink="http://www.w3.org/1999/xlink" x="0px" y="0px"
	 viewBox="0 0 80 80" style="enable-background:new 0 0 80 80;" xml:space="preserve">
<path d="M40.9,45.4h-6.2c-1.4,0-2.4-1.1-2.4-2.4c0-1.4,1.1-2.4,2.4-2.4h6.2c1.4,0,2.4,1.1,2.4,2.4C43.4,44.3,42.3,45.4,40.9,45.4z"
	/>
<path d="M40,79.4c-4.7,0-9.3-0.8-13.7-2.4c-1.3-0.5-1.9-1.9-1.5-3.1c0.5-1.3,1.9-1.9,3.1-1.5c3.8,1.4,7.9,2.1,12,2.1
	c19.2,0,34.8-15.6,34.8-34.8S59.1,4.9,39.9,4.9S5.2,20.5,5.2,39.8c0,8.4,3,16.5,8.5,22.8c0.9,1,0.8,2.6-0.2,3.5s-2.6,0.8-3.5-0.2
	c-6.3-7.2-9.7-16.5-9.7-26C0.3,18,18.1,0.2,40,0.2s39.7,17.7,39.7,39.6S61.9,79.4,40,79.4z"/>
<path d="M25.8,33.7c-4.4,0-7.9-3.6-7.9-7.9s3.6-7.9,7.9-7.9s7.9,3.6,7.9,7.9C33.7,30,30.2,33.7,25.8,33.7z M25.8,22.7
	c-1.7,0-3.1,1.4-3.1,3.1s1.4,3.1,3.1,3.1s3.1-1.4,3.1-3.1S27.5,22.7,25.8,22.7z"/>
<path d="M53.8,33.7c-4.4,0-7.9-3.6-7.9-7.9s3.6-7.9,7.9-7.9s7.9,3.6,7.9,7.9C61.7,30,58.1,33.7,53.8,33.7z M53.8,22.7
	c-1.7,0-3.1,1.4-3.1,3.1s1.4,3.1,3.1,3.1c1.7,0,3.1-1.4,3.1-3.1S55.5,22.7,53.8,22.7z"/>
<path d="M57.6,56.8c-4.4,0-7.9-3.6-7.9-7.9c0-3,2.5-12.8,7.9-12.8c5.5,0,7.9,9.8,7.9,12.8C65.5,53.3,62,56.8,57.6,56.8z M57.4,40.9
	c-0.9,0.5-2.9,5.4-2.9,8c0,1.7,1.4,3.1,3.1,3.1s3.1-1.4,3.1-3.1C60.6,46.3,58.7,41.4,57.4,40.9z"/>
</svg>
